<svg width="20" height="20" viewBox="0 0 20 20" xmlns="http://www.w3.org/2000/svg">
<g clip-path="url(#clip0_1348_6)">
<path fill-rule="evenodd" clip-rule="evenodd" d="M0 3C-0.552285 3 -1 3.44772 -1 4V5H2V15H-1V16C-1 16.5523 -0.552285 17 -5.96046e-08 17H3C3.55228 17 4 16.5523 4 16V4C4 3.44772 3.55228 3 3 3H0ZM20 3C20.5523 3 21 3.44772 21 4V5H18V15H21V16C21 16.5523 20.5523 17 20 17H17C16.4477 17 16 16.5523 16 16V4C16 3.44772 16.4477 3 17 3H20ZM5 4C5 3.44775 5.44775 3 6 3H14C14.5522 3 15 3.44775 15 4V16C15 16.5522 14.5522 17 14 17H6C5.44775 17 5 16.5522 5 16V4ZM7 5H13V15H7V5Z"/>
</g>
<defs>
<clipPath id="clip0_1348_6">
<rect width="20" height="20"/>
</clipPath>
</defs>
</svg>
